<svg width="320" height="320" viewBox="0 0 320 320" xmlns="http://www.w3.org/2000/svg">
  <defs>
    <radialGradient id="glow" cx="50%" cy="50%" r="60%">
      <stop offset="0%" stop-color="#f0c97d" stop-opacity="0.85" />
      <stop offset="45%" stop-color="#7c63d2" stop-opacity="0.4" />
      <stop offset="100%" stop-color="#120d26" stop-opacity="0" />
    </radialGradient>
    <linearGradient id="strokeGrad" x1="0" y1="0" x2="0" y2="1">
      <stop offset="0%" stop-color="#f2d38b" />
      <stop offset="100%" stop-color="#b38a4f" />
    </linearGradient>
  </defs>
  <circle cx="160" cy="160" r="150" fill="url(#glow)" />
  <path
    d="M160 34c56 0 102 46 102 102 0 32-16 70-46 113-19 27-39 49-56 66-17-17-37-39-56-66-30-43-46-81-46-113 0-56 46-102 102-102Z"
    fill="none"
    stroke="url(#strokeGrad)"
    stroke-width="4"
    opacity="0.9"
  />
  <circle cx="160" cy="136" r="58" fill="none" stroke="url(#strokeGrad)" stroke-width="2.5" opacity="0.7" />
  <path
    d="M160 72c24 0 44 20 44 44 0 12-5 24-14 32l-30-62-30 62c-9-8-14-20-14-32 0-24 20-44 44-44Z"
    fill="rgba(240, 201, 125, 0.22)"
    stroke="url(#strokeGrad)"
    stroke-width="1.5"
  />
  <path d="M160 192c20 32 36 54 36 70s-16 26-36 26-36-10-36-26 16-38 36-70Z" fill="rgba(124, 99, 210, 0.35)" />
</svg>
