<svg width="400" height="520" viewBox="0 0 400 520" xmlns="http://www.w3.org/2000/svg">
  <defs>
    <linearGradient id="silk" x1="0" y1="0" x2="0" y2="1">
      <stop offset="0%" stop-color="#f8e5bc" stop-opacity="0.92" />
      <stop offset="50%" stop-color="#b89a5d" stop-opacity="0.85" />
      <stop offset="100%" stop-color="#473469" stop-opacity="0.8" />
    </linearGradient>
    <radialGradient id="shadow" cx="50%" cy="10%" r="90%">
      <stop offset="0%" stop-color="#fff7dd" stop-opacity="0.8" />
      <stop offset="40%" stop-color="#d1b277" stop-opacity="0.6" />
      <stop offset="100%" stop-color="#3a2857" stop-opacity="0.2" />
    </radialGradient>
  </defs>
  <path
    d="M210 36c48 0 88 38 88 98 0 38-12 66-42 96 18 6 30 20 30 38 0 27-28 42-59 40-8 23-21 45-37 60 26 16 37 40 32 66-6 30-32 46-66 46-35 0-60-18-63-50-3-28 12-54 34-68-26-17-42-43-42-78 0-25 11-48 33-64-18-18-27-42-27-72 0-60 40-112 119-112Z"
    fill="url(#shadow)"
    opacity="0.9"
  />
  <path
    d="M206 46c-64 0-104 46-104 104 0 34 10 54 36 74-24 16-40 44-40 70 0 42 32 76 76 76 47 0 78-32 82-72 22-4 36-18 36-38 0-16-10-30-30-38 30-30 46-60 46-98 0-60-44-78-102-78Z"
    fill="url(#silk)"
    opacity="0.9"
  />
  <path
    d="M250 120c-14 22-38 36-66 36s-52-14-66-36c12-36 40-60 66-60s54 24 66 60Z"
    fill="#2a1f42"
    opacity="0.7"
  />
  <path d="M178 260c24 4 44-4 56-20-8 36-28 58-54 58s-42-12-52-40c14 8 32 10 50 2Z" fill="#2a1f42" opacity="0.58" />
</svg>
